Coordinates
version=1
nRows=15
nColumns=42
inDegrees=yes

Units are S.I. units (second, meters, Newtons, ...)
If the header above contains a line with 'inDegrees', this indicates whether rotational values are in degrees (yes) or radians (no).

endheader
time	pelvis_tilt	pelvis_list	pelvis_rotation	pelvis_tx	pelvis_ty	pelvis_tz	hip_flexion_r	hip_adduction_r	hip_rotation_r	knee_angle_r	knee_adduction_r	knee_angle_r_beta	ankle_angle_r	subtalar_angle_r	mtp_angle_r	hip_flexion_l	hip_adduction_l	hip_rotation_l	knee_angle_l	knee_adduction_l	knee_angle_l_beta	ankle_angle_l	subtalar_angle_l	mtp_angle_l	lumbar_extension	lumbar_bending	lumbar_rotation	arm_flex_r	arm_add_r	arm_rot_r	elbow_flex_r	pro_sup_r	wrist_flex_r	wrist_dev_r	arm_flex_l	arm_add_l	arm_rot_l	elbow_flex_l	pro_sup_l	wrist_flex_l	wrist_dev_l
      2.91000000	     -4.34057867	      0.60924978	     -0.27117365	      1.53820233	      0.93723277	     -0.06747299	     -6.21145799	      3.55472120	      1.57664948	      3.94128805	     -7.72412359	      0.06878845	     22.19819979	      6.55053718	     -7.50047085	     31.01958614	     -0.48709105	      5.25753964	     25.28612201	     -0.23048907	      0.44132608	      4.03784703	    -15.77634684	     -7.50047085	     -1.88677877	     -4.20081377	     -0.58929439	      2.41155866	    -14.11627795	      2.24986489	     34.31751449	     90.00000001	      0.00000000	      0.00000000	    -13.89666840	    -11.57539620	    -10.34311392	     20.58692666	     90.00000001	      0.00000000	      0.00000000
      2.92000000	     -4.81953100	      0.03550672	     -0.34594117	      1.54811543	      0.93402199	     -0.06786169	     -6.34203958	      4.16585345	      1.47726136	      4.03426002	     -7.76289714	      0.07041112	     22.79037971	      6.83054905	     -7.50046035	     31.60521048	     -1.10234038	      5.32379778	     21.94319950	     -0.96481347	      0.38298108	      3.97110642	    -14.42502986	     -7.50046035	     -1.48639972	     -3.61068560	     -0.44835134	      2.97289046	    -14.44184348	      2.63652875	     34.25089379	     90.00000001	      0.00000000	      0.00000000	    -14.42460612	    -11.39330119	    -10.46697022	     20.49033244	     90.00000001	      0.00000000	      0.00000000
      2.93000000	     -5.21952131	     -0.51124285	     -0.43050820	      1.55811574	      0.93088132	     -0.06832827	     -6.56335218	      4.75182868	      1.37993277	      4.13943122	     -7.81763196	      0.07224670	     23.34319631	      7.10776951	     -7.50045110	     32.05070041	     -1.66382298	      5.16106766	     18.71828276	     -1.80319848	      0.32669566	      3.88324152	    -12.85067086	     -7.50045110	     -1.19020962	     -3.04796081	     -0.33868044	      3.53492370	    -14.74833685	      3.05528196	     34.18067436	     90.00000001	      0.00000000	      0.00000000	    -14.90900184	    -11.22542155	    -10.58220726	     20.40659625	     90.00000001	      0.00000000	      0.00000000
      2.94000000	     -5.23496949	     -0.89181667	     -0.52481447	      1.56858758	      0.92817389	     -0.06902740	     -7.25628339	      5.04872591	      0.96856745	      4.18311624	     -7.72278788	      0.07300915	     23.91606184	      7.63132276	     -7.50043174	     32.00434621	     -2.02395476	      4.36530935	     15.67990293	     -2.78818205	      0.27366593	      4.10305483	    -10.52377150	     -7.50043174	     -1.30808676	     -2.66535564	     -0.23189756	      4.08496845	    -15.08091337	      3.61851451	     34.14900671	     90.00000001	      0.00000000	      0.00000000	    -15.27185116	    -11.03512231	    -10.94735971	     20.26205849	     90.00000001	      0.00000000	      0.00000000
      2.95000000	     -5.75007756	     -1.49731538	     -0.71168853	      1.57872652	      0.92486155	     -0.06940052	     -7.32053251	      5.72687451	      0.96708535	      4.37278667	     -7.84972685	      0.07631952	     24.41764633	      7.84646574	     -7.50042492	     32.74004917	     -2.75543031	      3.61907321	     13.31615269	     -3.44150882	      0.23241071	      4.00345195	     -8.98769988	     -7.50042492	     -0.86131400	     -2.04053257	      0.02219011	      4.51429394	    -15.34287822	      3.85308663	     34.01622842	     90.00000001	      0.00000000	      0.00000000	    -15.67288315	    -10.88361395	    -10.98402839	     20.21786930	     90.00000001	      0.00000000	      0.00000000
      2.96000000	     -5.68275452	     -1.84238538	     -0.97876952	      1.58958299	      0.92224210	     -0.07003752	     -8.02580955	      5.94610060	      0.68617414	      4.64339195	     -7.72590754	      0.08104248	     24.99146392	      8.38723002	     -7.50040060	     32.96627230	     -3.33460706	      1.07741381	     11.52877863	     -4.06332268	      0.20121515	      5.26663563	     -4.48367269	     -7.50040060	     -1.04112141	     -1.68565130	      0.23801501	      4.96183172	    -15.62467853	      4.30360827	     34.07879303	     90.00000001	      0.00000000	      0.00000000	    -15.96959813	    -10.67368812	    -11.37842184	     19.98885898	     90.00000001	      0.00000000	      0.00000000
      2.97000000	     -6.13604515	     -2.34247983	     -1.17881550	      1.59988890	      0.91918083	     -0.07055542	     -8.13491024	      6.47475706	      0.73982817	      4.92019524	     -7.80427971	      0.08587361	     25.37084973	      8.49141672	     -7.50039506	     33.69180930	     -3.99688247	      0.04779281	      9.98070216	     -4.34617587	      0.17419611	      5.14182252	     -3.26668856	     -7.50039506	     -0.67864000	     -1.18057210	      0.48489507	      5.30640082	    -15.80155514	      4.38684881	     33.93198758	     90.00000001	      0.00000000	      0.00000000	    -16.26144781	    -10.56495490	    -11.39334842	     19.94738451	     90.00000001	      0.00000000	      0.00000000
      2.98000000	     -6.15587437	     -2.59647292	     -1.56262076	      1.61088396	      0.91668912	     -0.07125271	     -8.67725086	      6.57088266	      0.72927775	      5.37879089	     -7.69338880	      0.09387761	     25.86133575	      8.79654753	     -7.50036916	     34.29382726	     -4.65848444	     -3.41546635	      9.47870443	     -4.50282721	      0.16543460	      6.77995890	      1.95044485	     -7.50036916	     -0.75344491	     -0.91598575	      0.85723952	      5.60529586	    -15.97457380	      4.48287524	     33.95799036	     90.00000001	      0.00000000	      0.00000000	    -16.43421346	    -10.38649269	    -11.72865288	     19.70971420	     90.00000001	      0.00000000	      0.00000000
      2.99000000	     -6.44891174	     -2.88783484	     -1.74808368	      1.62148022	      0.91411521	     -0.07204793	     -8.92662014	      6.79964974	      0.82307696	      5.78383429	     -7.70011478	      0.10094695	     26.12571480	      8.78730712	     -7.50036394	     34.74244703	     -5.07186684	     -4.31641996	      8.63779030	     -4.51751028	      0.15075788	      6.60547540	      2.83118390	     -7.50036394	     -0.57347171	     -0.64302512	      1.05436285	      5.86673263	    -16.06059644	      4.47985358	     33.84235767	     90.00000001	      0.00000000	      0.00000000	    -16.60619864	    -10.32678772	    -11.73302817	     19.61791163	     90.00000001	      0.00000000	      0.00000000
      3.00000000	     -6.49168505	     -2.96227683	     -2.03304001	      1.63265512	      0.91194796	     -0.07302989	     -9.43575998	      6.65669717	      0.89444391	      6.28346584	     -7.55547862	      0.10966717	     26.39553948	      8.81708765	     -7.50034235	     35.21322288	     -5.42800659	     -6.80945052	      8.82427652	     -4.48780648	      0.15401268	      7.58888586	      6.25072285	     -7.50034235	     -0.62746615	     -0.59628452	      1.35950132	      6.02329606	    -16.08347631	      4.24295136	     33.83551781	     90.00000001	      0.00000000	      0.00000000	    -16.65485020	    -10.23612538	    -12.00234121	     19.38749881	     90.00000001	      0.00000000	      0.00000000
      3.01000000	     -6.67588906	     -3.07595743	     -2.02776979	      1.64367609	      0.90977553	     -0.07429692	     -9.86655390	      6.62986416	      0.91608422	      6.59540225	     -7.49334967	      0.11511148	     26.37128308	      8.83124267	     -7.50034097	     35.50591349	     -5.43446171	     -6.92182839	      8.81534532	     -4.47659191	      0.15385680	      7.50911732	      6.29056636	     -7.50034097	     -0.56298690	     -0.54598093	      1.38132194	      6.07552455	    -16.11948583	      4.21623620	     33.86829160	     90.00000001	      0.00000000	      0.00000000	    -16.73599795	    -10.26441925	    -11.99653623	     19.39126284	     90.00000001	      0.00000000	      0.00000000
      3.02000000	     -6.83717388	     -3.13238077	     -2.09564726	      1.65504224	      0.90784858	     -0.07562639	    -10.29304103	      6.49830551	      1.00468901	      7.00066791	     -7.41392630	      0.12218470	     26.34491547	      8.83937687	     -7.50033945	     35.64363519	     -5.40110742	     -6.89939071	      9.00539693	     -4.44810097	      0.15717383	      7.31526488	      6.42371670	     -7.50033945	     -0.47810873	     -0.53896099	      1.43653157	      6.06815532	    -16.10485075	      4.16673804	     33.86333940	     90.00000001	      0.00000000	      0.00000000	    -16.81792012	    -10.26176837	    -11.97956923	     19.35875943	     90.00000001	      0.00000000	      0.00000000
      3.03000000	     -6.91055414	     -2.91556973	     -2.33237339	      1.66630512	      0.90633015	     -0.07710731	    -10.53494169	      5.87484358	      1.05926065	      7.95447575	     -7.03628698	      0.13883179	     26.54966169	      8.53288098	     -7.50032513	     35.88461765	     -5.21313597	     -7.80747108	      9.92993495	     -4.48920217	      0.17331006	      6.82359767	      7.67465381	     -7.50032513	     -0.52623950	     -0.81387559	      1.77909937	      6.14636114	    -15.87447980	      3.23081433	     33.59263280	     90.00000001	      0.00000000	      0.00000000	    -16.50605988	    -10.29593597	    -11.99583381	     18.94293901	     90.00000001	      0.00000000	      0.00000000
      3.04000000	     -6.94436620	     -2.80615188	     -2.27318302	      1.67796676	      0.90498437	     -0.07888107	    -11.03466764	      5.46025190	      1.12537258	      8.50716552	     -6.78985827	      0.14847805	     26.30096003	      8.51156149	     -7.50032166	     35.95913132	     -4.88834421	     -7.38589548	     10.87489028	     -4.48044329	      0.18980264	      6.20125843	      7.76441943	     -7.50032166	     -0.58927877	     -1.00199554	      1.73965968	      6.03604466	    -15.79226729	      3.09179161	     33.60929609	     90.00000001	      0.00000000	      0.00000000	    -16.39568278	    -10.35782931	    -11.95103035	     18.86210041	     90.00000001	      0.00000000	      0.00000000
      3.05000000	     -6.98384491	     -2.53998346	     -2.11511479	      1.68994314	      0.90388398	     -0.08087966	    -11.46753304	      4.83958860	      0.93440252	      9.16799729	     -6.49198219	      0.16001174	     25.90373062	      8.27154726	     -7.50031603	     36.09701797	     -4.33335572	     -6.82580368	     12.14454595	     -4.49586372	      0.21196231	      5.22846399	      7.43709504	     -7.50031603	     -0.60640378	     -1.37605406	      1.67388250	      5.79704783	    -15.59464771	      2.60817819	     33.52898713	     90.00000001	      0.00000000	      0.00000000	    -16.14959921	    -10.49909234	    -11.87386841	     18.62608132	     90.00000001	      0.00000000	      0.00000000
